<?xml version="1.0" encoding="utf-8"?>
<!-- Generator: Adobe Illustrator 25.1.0, SVG Export Plug-In . SVG Version: 6.00 Build 0)  -->
<svg version="1.1" id="图层_1" xmlns="http://www.w3.org/2000/svg" xmlns:xlink="http://www.w3.org/1999/xlink" x="0px" y="0px"
	 viewBox="0 0 275.5 179.6" style="enable-background:new 0 0 275.5 179.6;" xml:space="preserve">
<style type="text/css">
	.st0{clip-path:url(#SVGID_3_);}
	.st1{fill:#333333;fill-opacity:0;}
	.st2{fill:#36B0E2;}
	.st3{fill:#F05674;}
	.st4{fill:#F7A400;}
	.st5{fill:#00CC8C;}
	.st6{fill:#333333;}
</style>
<g>
	<defs>
		<polygon id="SVGID_1_" points="3,3 4,3 3,4 		"/>
	</defs>
	<defs>
		<polygon id="SVGID_2_" points="1,1 0,1 1,0 		"/>
	</defs>
	<clipPath id="SVGID_3_">
		<use xlink:href="#SVGID_1_"  style="overflow:visible;"/>
	</clipPath>
	<clipPath id="SVGID_4_" class="st0">
		<use xlink:href="#SVGID_2_"  style="overflow:visible;"/>
	</clipPath>
</g>
<g transform="translate(111.67499923706055,87.68949127197266)">
	<g transform="translate(28.325000762939453,0)">
		<rect x="-72.3" y="-83.7" class="st1" width="141.2" height="86.5"/>
		<g>
			<g>
				<path class="st2" d="M57.6,2.8c-4.4,0-8.3-2.5-10.2-6.5L17.8-67.8c-2.6-5.6-0.2-12.3,5.4-14.9c5.6-2.6,12.3-0.2,14.9,5.4l0,0
					l29.7,64.1c2.6,5.6,0.2,12.3-5.4,14.9C60.9,2.4,59.3,2.8,57.6,2.8z"/>
				<path class="st3" d="M-1.8,2.8c-6.2,0-11.2-5-11.2-11.2c0-1.6,0.4-3.2,1-4.7l29.7-64.1c2.6-5.6,9.2-8,14.9-5.4
					c5.6,2.6,8,9.2,5.4,14.9l0,0L8.4-3.7C6.6,0.2,2.6,2.8-1.8,2.8z"/>
				<path class="st4" d="M-1.8,2.8c-4.4,0-8.3-2.5-10.2-6.5l-29.7-64.1c-2.6-5.6-0.2-12.3,5.4-14.9c5.6-2.6,12.3-0.2,14.9,5.4l0,0
					L8.4-13.1C11-7.5,8.5-0.9,2.9,1.7C1.5,2.4-0.1,2.8-1.8,2.8z"/>
				<path class="st5" d="M-61.2,2.8c-6.2,0-11.2-5-11.2-11.2c0-1.6,0.4-3.2,1-4.7l29.7-64.1c2.6-5.6,9.2-8,14.9-5.4
					c5.6,2.6,8,9.2,5.4,14.9l0,0L-51-3.7C-52.8,0.2-56.8,2.8-61.2,2.8z"/>
			</g>
		</g>
	</g>
	<g transform="translate(0,43.74815368652344)">
		<g>
			<g>
				<path class="st6" d="M-50.9,32.5l6.6-7.4L-41.4,4h-13.8l-10.3,28h-16.4L-65.3-13h-11.8l1.3-9.6h57.1L-20-13h-28.8l-2.7,7.4h28.4
					l-4.4,31.6c-0.3,1.8-1.1,3.4-2.4,4.7c-1.3,1.3-2.9,1.9-4.5,1.9l0,0H-50.9z M-93.4,46.4h-17.2l5.2-9.6l4.8-34.5h-3.8l1.4-9.6H-82
					l-5.6,40l13.8,4.1H-27l-1.3,9.6h-53.7l-9.9-2.9L-93.4,46.4z M-100-22.6h15.3l4.1,11.5h-15.3L-100-22.6z M22.8,13H46l0.8-5.5
					H21.9l1.3-9.1h15.5l1-7.1H26.1l1.3-9.1h13.5l0.6-3.8l-3.6-3h23l-1,6.8h12.3l-1.3,9.1H58.6l-1,7.1h14.7L71,7.6h-7.1L63.1,13h5.6
					l-1.2,8.8h-5.6l-2.7,19.4c-0.3,1.9-1.2,3.5-2.8,4.8c-1.6,1.3-3.4,1.9-5.4,1.9l0,0H33l9.5-9.4l2.3-16.6H21.6L22.8,13z M4.3-18.8
					L2.1-9.2h3.1l2.2-15.3h12.8L18-9.2h2.4l-1.3,9.6h-2.4l-2.5,17.7l4.3-0.5l-1.3,9.6l-4.4,0.5L10,48.1H-4.3l2.6-18.7l-14.4,1.6
					l1.4-9.6l14.3-1.6L2.5,0.4h-2.6L-2.3,10H-13l6-26.1l-2-2.6H4.3z M35.1,25.4l4.1,13.1H25.7l-4.1-13.1H35.1z M130.8,17.4h17.9
					l6,30.6h-17.8l-0.7-3.3l-57.5,2.6l1.4-10.4l18.9-26H78l1.3-9.7h84.5l-1.3,9.7H120l-17.8,24.9l31.9-1.5L130.8,17.4z M90.2-22.7
					h71.1l-1.4,9.9H88.8L90.2-22.7z"/>
			</g>
		</g>
	</g>
</g>
</svg>
